# xmcd
#
# Track frame offsets: 
#        150
#        12217
#        27692
#        45855
#        65187
#        82952
#        94960
#        106575
#        125057
#        144470
#        159632
#        172350
#        189050
#        207900
#        222877
#        236547
#
# Disc length: 3325 seconds
#
# Revision: 1
# Processed by: cddbd v1.5.2PL0 Copyright (c) Steve Scherf et al.
# Submitted via: ExactAudioCopy v0.95b4
#
DISCID=dd0cfb10
DTITLE=Lucie Arnaz - Just In Time
DYEAR=1993
DGENRE=Jazz
TTITLE0=Lover
TTITLE1='s Wonderful
TTITLE2=Slow Dancin'
TTITLE3=Sorry 'Bout the Whole Darn Thing
TTITLE4=I Love To Dance - I Got Lost in His Arms
TTITLE5=The Things We Did Last Summer
TTITLE6=View from Here
TTITLE7=I'm Beginning to See the Light - Moonglow
TTITLE8=My Foolish Heart
TTITLE9=Just in Time
TTITLE10=Recipe for Love
TTITLE11=Another You
TTITLE12=Witchcraft
TTITLE13=Quiereme Mucho
TTITLE14=Make Someone Happy
TTITLE15=Blue Skies
EXTD=
EXTT0=
EXTT1=
EXTT2=
EXTT3=
EXTT4=
EXTT5=
EXTT6=
EXTT7=
EXTT8=
EXTT9=
EXTT10=
EXTT11=
EXTT12=
EXTT13=
EXTT14=
EXTT15=
PLAYORDER=
